<svg width="49" height="43" fill="none" xmlns="http://www.w3.org/2000/svg"><path fill-rule="evenodd" clip-rule="evenodd" d="M41.126 7.085s-.28-.354-1.728-.346c-1.45.008-17.626 0-17.626 0L25.402 0h7.948c2.427.001 3.976.782 5.53 3.284 1.178 1.897 1.499 2.458 2.245 3.8Z" fill="#8250E1"/><path fill-rule="evenodd" clip-rule="evenodd" d="M19.18 0s-8.212 14.509-9.158 16.243c-.945 1.734-1.56 2.225-1.555 3.802.006 1.576.329 3.992 3.802 3.974 0 0 17.056.017 18.661 0 1.36-.015 1.75.235 1.729.691-.021.456-.624 1.329-1.383 2.592L30.24 29.03c-.493.823-.865 1.556-1.9 1.555 0 0-19.38.011-21.427 0-2.458-.014-3.417-.453-5.01-3.283C.307 24.472.02 24.184 0 22.118c-.02-2.066.512-2.586 1.9-5.011C3.29 14.682 7.955 6.489 9.677 3.629 11.399.77 13.303 0 15.725 0h3.456ZM6.912 35.77s.279.354 1.728.346c1.45-.008 17.625 0 17.625 0l-3.629 6.737h-7.948c-2.427 0-3.976-.781-5.53-3.282-1.178-1.898-1.5-2.458-2.246-3.801Z" fill="#8250E1"/><path fill-rule="evenodd" clip-rule="evenodd" d="M28.857 42.853s8.212-14.506 9.158-16.24c.946-1.733 1.56-2.224 1.555-3.8-.005-1.577-.328-3.992-3.801-3.974 0 0-17.057-.017-18.662 0-1.358.015-1.749-.235-1.728-.69.021-.457.623-1.33 1.383-2.592l1.036-1.728c.494-.823.866-1.556 1.901-1.555 0 0 19.38-.011 21.427 0 2.458.014 3.417.453 5.01 3.283 1.594 2.83 1.882 3.117 1.901 5.182.02 2.066-.512 2.586-1.9 5.01-1.389 2.425-6.054 10.617-7.776 13.476-1.723 2.86-3.626 3.629-6.048 3.628h-3.456Z" fill="#8250E1"/></svg>